<svg width="38" height="44" viewBox="0 0 38 44" fill="none" xmlns="http://www.w3.org/2000/svg">
<path d="M10.8571 0C12.3585 0 13.5714 1.21295 13.5714 2.71429V5.42857H24.4286V2.71429C24.4286 1.21295 25.6415 0 27.1429 0C28.6442 0 29.8571 1.21295 29.8571 2.71429V5.42857H33.9286C36.1763 5.42857 38 7.25223 38 9.5V13.5714H0V9.5C0 7.25223 1.82366 5.42857 4.07143 5.42857H8.14286V2.71429C8.14286 1.21295 9.3558 0 10.8571 0ZM0 16.2857H38V39.3571C38 41.6049 36.1763 43.4286 33.9286 43.4286H4.07143C1.82366 43.4286 0 41.6049 0 39.3571V16.2857ZM5.42857 23.0714V25.7857C5.42857 26.5321 6.03929 27.1429 6.78571 27.1429H9.5C10.2464 27.1429 10.8571 26.5321 10.8571 25.7857V23.0714C10.8571 22.325 10.2464 21.7143 9.5 21.7143H6.78571C6.03929 21.7143 5.42857 22.325 5.42857 23.0714ZM16.2857 23.0714V25.7857C16.2857 26.5321 16.8964 27.1429 17.6429 27.1429H20.3571C21.1036 27.1429 21.7143 26.5321 21.7143 25.7857V23.0714C21.7143 22.325 21.1036 21.7143 20.3571 21.7143H17.6429C16.8964 21.7143 16.2857 22.325 16.2857 23.0714ZM28.5 21.7143C27.7536 21.7143 27.1429 22.325 27.1429 23.0714V25.7857C27.1429 26.5321 27.7536 27.1429 28.5 27.1429H31.2143C31.9607 27.1429 32.5714 26.5321 32.5714 25.7857V23.0714C32.5714 22.325 31.9607 21.7143 31.2143 21.7143H28.5ZM5.42857 33.9286V36.6429C5.42857 37.3893 6.03929 38 6.78571 38H9.5C10.2464 38 10.8571 37.3893 10.8571 36.6429V33.9286C10.8571 33.1821 10.2464 32.5714 9.5 32.5714H6.78571C6.03929 32.5714 5.42857 33.1821 5.42857 33.9286ZM17.6429 32.5714C16.8964 32.5714 16.2857 33.1821 16.2857 33.9286V36.6429C16.2857 37.3893 16.8964 38 17.6429 38H20.3571C21.1036 38 21.7143 37.3893 21.7143 36.6429V33.9286C21.7143 33.1821 21.1036 32.5714 20.3571 32.5714H17.6429ZM27.1429 33.9286V36.6429C27.1429 37.3893 27.7536 38 28.5 38H31.2143C31.9607 38 32.5714 37.3893 32.5714 36.6429V33.9286C32.5714 33.1821 31.9607 32.5714 31.2143 32.5714H28.5C27.7536 32.5714 27.1429 33.1821 27.1429 33.9286Z" fill="white"/>
</svg>
