<svg width="224" height="39" viewBox="0 0 224 39" fill="none" xmlns="http://www.w3.org/2000/svg">
<path d="M90.738 5.358C91.256 5.358 91.6507 5.44433 91.922 5.617C92.218 5.765 92.366 5.987 92.366 6.283C92.366 6.40633 92.329 6.56667 92.255 6.764C92.181 6.986 92.07 7.15867 91.922 7.282C91.7987 7.38067 91.6013 7.51633 91.33 7.689C90.9353 7.911 90.6147 8.15767 90.368 8.429C90.146 8.70033 89.9487 9.11967 89.776 9.687L85.262 25.597C85.1633 25.9177 85.114 26.226 85.114 26.522C85.114 26.7933 85.151 27.0277 85.225 27.225C85.3237 27.3977 85.447 27.6073 85.595 27.854C85.6937 27.9773 85.78 28.113 85.854 28.261C85.928 28.3843 85.965 28.52 85.965 28.668C85.965 28.7173 85.9403 28.8407 85.891 29.038C85.7923 29.3587 85.558 29.593 85.188 29.741C84.8427 29.889 84.337 29.963 83.671 29.963H74.976C74.458 29.963 74.051 29.8767 73.755 29.704C73.4837 29.5313 73.348 29.297 73.348 29.001C73.348 28.853 73.385 28.6927 73.459 28.52C73.533 28.3473 73.6317 28.1993 73.755 28.076C73.903 27.928 74.0263 27.8293 74.125 27.78C74.2483 27.706 74.3347 27.6443 74.384 27.595C74.7787 27.373 75.0993 27.1263 75.346 26.855C75.5927 26.5837 75.8023 26.1643 75.975 25.597L78.787 15.607L69.204 27.484C68.4147 28.446 67.7733 29.112 67.28 29.482C66.8113 29.8273 66.2687 30 65.652 30C65.06 30 64.5913 29.815 64.246 29.445C63.9253 29.0503 63.6293 28.3967 63.358 27.484L59.88 16.051L57.142 25.634C57.0433 25.9547 56.994 26.263 56.994 26.559C56.994 26.855 57.031 27.1017 57.105 27.299C57.2037 27.4963 57.3393 27.706 57.512 27.928C57.734 28.2487 57.845 28.5077 57.845 28.705C57.845 28.7543 57.8203 28.8777 57.771 29.075C57.6723 29.4203 57.4503 29.667 57.105 29.815C56.7597 29.9383 56.2417 30 55.551 30H52.48C51.962 30 51.555 29.9137 51.259 29.741C50.9877 29.5683 50.852 29.334 50.852 29.038C50.852 28.89 50.889 28.7297 50.963 28.557C51.0617 28.2857 51.222 28.076 51.444 27.928C51.666 27.78 51.8017 27.6937 51.851 27.669C52.2457 27.4223 52.5663 27.1757 52.813 26.929C53.0597 26.6577 53.2693 26.226 53.442 25.634L57.956 9.65L57.364 7.689C57.2407 7.319 57.179 6.96133 57.179 6.616C57.179 6.172 57.3147 5.85133 57.586 5.654C57.882 5.45667 58.326 5.358 58.918 5.358H64.653C65.393 5.358 65.9357 5.51833 66.281 5.839C66.651 6.15966 66.947 6.71467 67.169 7.504L70.869 19.788L80.896 7.319C81.5373 6.52967 82.1663 6.01167 82.783 5.765C83.3997 5.49367 84.2137 5.358 85.225 5.358H90.738Z" fill="white"/>
<path d="M108.911 10.427C109.996 10.427 110.859 10.871 111.501 11.759C112.167 12.6223 112.5 13.8063 112.5 15.311C112.5 16.6183 112.265 18.0243 111.797 19.529C110.884 22.563 109.416 25.4243 107.394 28.113C105.396 30.8017 103.089 32.96 100.475 34.588C97.8848 36.216 95.2948 37.03 92.7048 37.03C91.4221 37.03 90.3121 36.808 89.3748 36.364C88.4621 35.92 87.7714 35.328 87.3028 34.588C86.8094 33.848 86.5628 33.0587 86.5628 32.22C86.5628 31.85 86.6244 31.443 86.7478 30.999C86.9698 30.3083 87.3398 29.778 87.8578 29.408C88.3758 29.038 88.9924 28.853 89.7078 28.853C90.8424 28.853 91.7674 29.2353 92.4828 30C93.2228 30.7893 93.6914 31.8623 93.8888 33.219C95.4674 33.145 96.9228 32.4667 98.2548 31.184C96.9968 30.962 96.0594 30.5427 95.4428 29.926C94.8508 29.2847 94.4438 28.298 94.2218 26.966L92.7418 17.901C92.6678 17.4323 92.5568 17.1117 92.4088 16.939C92.2854 16.7417 92.1128 16.643 91.8908 16.643C91.7181 16.643 91.5084 16.7293 91.2618 16.902C91.0398 17.0747 90.8795 17.161 90.7808 17.161C90.5835 17.161 90.4848 16.9513 90.4848 16.532C90.4848 16.1867 90.5465 15.8167 90.6698 15.422C91.1138 14.016 91.9401 12.832 93.1488 11.87C94.3574 10.8833 95.7634 10.39 97.3668 10.39C98.9454 10.39 100.105 10.8587 100.845 11.796C101.609 12.7333 102.103 14.1763 102.325 16.125L103.435 24.265C103.509 24.8817 103.731 25.19 104.101 25.19C104.545 25.19 105.063 24.7953 105.655 24.006C106.247 23.192 106.826 22.045 107.394 20.565C106.654 19.899 106.086 19.1343 105.692 18.271C105.297 17.4077 105.1 16.4827 105.1 15.496C105.1 14.7313 105.198 14.0407 105.396 13.424C105.692 12.4373 106.148 11.6973 106.765 11.204C107.406 10.686 108.121 10.427 108.911 10.427Z" fill="white"/>
<path d="M151.983 5.358C152.501 5.358 152.896 5.44433 153.167 5.617C153.463 5.765 153.611 5.987 153.611 6.283C153.611 6.40633 153.574 6.56667 153.5 6.764C153.426 6.986 153.315 7.15867 153.167 7.282C153.044 7.38067 152.846 7.51633 152.575 7.689C152.18 7.911 151.86 8.15767 151.613 8.429C151.391 8.70033 151.194 9.11967 151.021 9.687L146.507 25.597C146.408 25.9177 146.359 26.226 146.359 26.522C146.359 26.7933 146.396 27.0277 146.47 27.225C146.569 27.3977 146.692 27.6073 146.84 27.854C146.939 27.9773 147.025 28.113 147.099 28.261C147.173 28.3843 147.21 28.52 147.21 28.668C147.21 28.7173 147.185 28.8407 147.136 29.038C147.037 29.3587 146.803 29.593 146.433 29.741C146.088 29.889 145.582 29.963 144.916 29.963H136.221C135.703 29.963 135.296 29.8767 135 29.704C134.729 29.5313 134.593 29.297 134.593 29.001C134.593 28.853 134.63 28.6927 134.704 28.52C134.778 28.3473 134.877 28.1993 135 28.076C135.148 27.928 135.271 27.8293 135.37 27.78C135.493 27.706 135.58 27.6443 135.629 27.595C136.024 27.373 136.344 27.1263 136.591 26.855C136.838 26.5837 137.047 26.1643 137.22 25.597L140.032 15.607L130.449 27.484C129.66 28.446 129.018 29.112 128.525 29.482C128.056 29.8273 127.514 30 126.897 30C126.305 30 125.836 29.815 125.491 29.445C125.17 29.0503 124.874 28.3967 124.603 27.484L121.125 16.051L118.387 25.634C118.288 25.9547 118.239 26.263 118.239 26.559C118.239 26.855 118.276 27.1017 118.35 27.299C118.449 27.4963 118.584 27.706 118.757 27.928C118.979 28.2487 119.09 28.5077 119.09 28.705C119.09 28.7543 119.065 28.8777 119.016 29.075C118.917 29.4203 118.695 29.667 118.35 29.815C118.005 29.9383 117.487 30 116.796 30H113.725C113.207 30 112.8 29.9137 112.504 29.741C112.233 29.5683 112.097 29.334 112.097 29.038C112.097 28.89 112.134 28.7297 112.208 28.557C112.307 28.2857 112.467 28.076 112.689 27.928C112.911 27.78 113.047 27.6937 113.096 27.669C113.491 27.4223 113.811 27.1757 114.058 26.929C114.305 26.6577 114.514 26.226 114.687 25.634L119.201 9.65L118.609 7.689C118.486 7.319 118.424 6.96133 118.424 6.616C118.424 6.172 118.56 5.85133 118.831 5.654C119.127 5.45667 119.571 5.358 120.163 5.358H125.898C126.638 5.358 127.181 5.51833 127.526 5.839C127.896 6.15966 128.192 6.71467 128.414 7.504L132.114 19.788L142.141 7.319C142.782 6.52967 143.411 6.01167 144.028 5.765C144.645 5.49367 145.459 5.358 146.47 5.358H151.983Z" fill="white"/>
<path d="M163.089 10.242C166.222 10.242 168.491 10.7477 169.897 11.759C171.303 12.7457 172.006 14.016 172.006 15.57C172.006 16.0387 171.957 16.4703 171.858 16.865C171.488 18.493 170.452 19.6647 168.75 20.38C167.073 21.0707 165.087 21.416 162.793 21.416C161.634 21.416 160.548 21.342 159.537 21.194C159.512 22.4767 159.858 23.377 160.573 23.895C161.288 24.413 162.287 24.672 163.57 24.672C164.162 24.672 164.729 24.6103 165.272 24.487C165.815 24.339 166.505 24.1293 167.344 23.858C168.035 23.6113 168.503 23.488 168.75 23.488C169.021 23.488 169.157 23.6483 169.157 23.969C169.182 24.8323 168.861 25.745 168.195 26.707C167.529 27.6443 166.542 28.446 165.235 29.112C163.928 29.778 162.349 30.111 160.499 30.111C157.761 30.111 155.516 29.4203 153.765 28.039C152.014 26.6577 151.138 24.6473 151.138 22.008C151.138 21.268 151.237 20.4047 151.434 19.418C152.051 16.384 153.395 14.1023 155.467 12.573C157.564 11.019 160.104 10.242 163.089 10.242ZM159.796 18.974C159.895 18.9987 160.03 19.011 160.203 19.011C161.239 19.011 162.028 18.53 162.571 17.568C163.114 16.606 163.373 15.533 163.348 14.349C163.323 13.6583 163.126 13.313 162.756 13.313C162.485 13.313 162.164 13.535 161.794 13.979C161.424 14.3983 161.054 15.0397 160.684 15.903C160.339 16.7663 160.043 17.79 159.796 18.974Z" fill="white"/>
<path d="M194.153 24.894C194.104 24.9927 194.079 25.1407 194.079 25.338C194.079 25.5107 194.116 25.6463 194.19 25.745C194.289 25.8437 194.412 25.893 194.56 25.893C194.856 25.893 195.103 25.7697 195.3 25.523C195.522 25.2517 195.67 25.116 195.744 25.116C195.867 25.116 195.966 25.2023 196.04 25.375C196.114 25.523 196.151 25.708 196.151 25.93C196.176 26.6453 195.941 27.3483 195.448 28.039C194.955 28.705 194.227 29.26 193.265 29.704C192.328 30.1233 191.193 30.333 189.861 30.333C188.233 30.333 186.938 29.963 185.976 29.223C185.014 28.4583 184.521 27.447 184.496 26.189C184.496 25.2763 184.718 24.2527 185.162 23.118L187.197 17.79C187.32 17.4693 187.382 17.2103 187.382 17.013C187.382 16.6923 187.271 16.4457 187.049 16.273C186.852 16.0757 186.605 15.977 186.309 15.977C185.766 15.977 185.248 16.236 184.755 16.754C184.262 17.2473 183.904 17.864 183.682 18.604L181.388 26.152C181.289 26.4233 181.24 26.6823 181.24 26.929C181.24 27.225 181.302 27.4717 181.425 27.669C181.548 27.8417 181.721 28.0267 181.943 28.224C182.116 28.372 182.239 28.5077 182.313 28.631C182.387 28.7543 182.399 28.9023 182.35 29.075C182.251 29.3957 182.017 29.63 181.647 29.778C181.277 29.926 180.697 30 179.908 30H171.472C170.831 30 170.374 29.9013 170.103 29.704C169.807 29.482 169.696 29.1983 169.77 28.853C169.869 28.557 170.128 28.298 170.547 28.076C170.917 27.8787 171.225 27.6443 171.472 27.373C171.719 27.1017 171.928 26.67 172.101 26.078L175.394 15.385C175.443 15.2617 175.468 15.089 175.468 14.867C175.468 14.5957 175.406 14.386 175.283 14.238C175.184 14.09 175.012 13.905 174.765 13.683C174.518 13.4857 174.346 13.313 174.247 13.165C174.148 13.017 174.136 12.8197 174.21 12.573C174.358 12.0057 175.135 11.5123 176.541 11.093C177.947 10.649 179.415 10.427 180.944 10.427C182.177 10.427 183.152 10.7723 183.867 11.463C184.582 12.129 184.903 13.0663 184.829 14.275C185.84 12.8197 186.913 11.8207 188.048 11.278C189.183 10.7107 190.416 10.427 191.748 10.427C193.253 10.427 194.461 10.8833 195.374 11.796C196.311 12.7087 196.78 13.8927 196.78 15.348C196.78 16.1127 196.657 16.865 196.41 17.605L194.153 24.894Z" fill="white"/>
<path d="M219.713 24.894C219.664 25.0913 219.639 25.2393 219.639 25.338C219.639 25.5107 219.676 25.6463 219.75 25.745C219.849 25.8437 219.972 25.893 220.12 25.893C220.416 25.893 220.663 25.7697 220.86 25.523C221.082 25.2517 221.23 25.116 221.304 25.116C221.428 25.116 221.526 25.2023 221.6 25.375C221.699 25.523 221.748 25.708 221.748 25.93C221.773 26.6207 221.526 27.3113 221.008 28.002C220.49 28.668 219.763 29.223 218.825 29.667C217.888 30.111 216.84 30.333 215.68 30.333C214.225 30.333 213.066 30.037 212.202 29.445C211.339 28.853 210.784 28.076 210.537 27.114C209.649 28.1007 208.663 28.853 207.577 29.371C206.517 29.8643 205.431 30.111 204.321 30.111C202.595 30.111 201.139 29.6917 199.955 28.853C198.796 27.9897 198.216 26.7933 198.216 25.264C198.216 24.5733 198.34 23.858 198.586 23.118L200.954 15.385C201.028 15.163 201.065 14.978 201.065 14.83C201.065 14.5587 201.004 14.349 200.88 14.201C200.757 14.0283 200.572 13.8557 200.325 13.683C200.079 13.4857 199.906 13.313 199.807 13.165C199.709 13.017 199.696 12.8197 199.77 12.573C199.918 12.0057 200.695 11.5123 202.101 11.093C203.507 10.649 204.975 10.427 206.504 10.427C207.935 10.427 208.983 10.6983 209.649 11.241C210.315 11.7837 210.648 12.5237 210.648 13.461C210.648 14.0283 210.562 14.571 210.389 15.089L208.058 22.785C207.96 23.0563 207.91 23.3153 207.91 23.562C207.91 23.9073 208.009 24.1663 208.206 24.339C208.404 24.5117 208.663 24.598 208.983 24.598C209.452 24.598 209.834 24.4623 210.13 24.191C210.426 23.9197 210.722 23.4633 211.018 22.822L213.275 15.385C213.349 15.163 213.386 14.978 213.386 14.83C213.386 14.5587 213.325 14.349 213.201 14.201C213.078 14.0283 212.905 13.8557 212.683 13.683C212.437 13.4857 212.264 13.313 212.165 13.165C212.067 13.017 212.054 12.8197 212.128 12.573C212.252 12.0057 213.016 11.5123 214.422 11.093C215.828 10.649 217.296 10.427 218.825 10.427C220.256 10.427 221.304 10.6983 221.97 11.241C222.661 11.7837 223.006 12.5113 223.006 13.424C223.006 13.8927 222.908 14.4477 222.71 15.089L219.713 24.894Z" fill="white"/>
<path d="M3.85229 16.4C2.47708 16.4 1.36667 15.2896 1.36667 13.9144C1.36667 13.7521 1.38375 13.5983 1.41792 13.436C1.87062 11.6423 5.36417 0 20.5 0C35.6358 0 39.1294 11.6423 39.5821 13.436C39.6248 13.5983 39.6333 13.7521 39.6333 13.9144C39.6333 15.2896 38.5229 16.4 37.1477 16.4H3.85229ZM10.9333 8.2C10.9333 7.83754 10.7893 7.48992 10.533 7.23362C10.2767 6.97732 9.92913 6.83333 9.56667 6.83333C9.2042 6.83333 8.85659 6.97732 8.60029 7.23362C8.34399 7.48992 8.2 7.83754 8.2 8.2C8.2 8.56246 8.34399 8.91008 8.60029 9.16638C8.85659 9.42268 9.2042 9.56667 9.56667 9.56667C9.92913 9.56667 10.2767 9.42268 10.533 9.16638C10.7893 8.91008 10.9333 8.56246 10.9333 8.2ZM31.4333 9.56667C31.7958 9.56667 32.1434 9.42268 32.3997 9.16638C32.656 8.91008 32.8 8.56246 32.8 8.2C32.8 7.83754 32.656 7.48992 32.3997 7.23362C32.1434 6.97732 31.7958 6.83333 31.4333 6.83333C31.0709 6.83333 30.7233 6.97732 30.467 7.23362C30.2107 7.48992 30.0667 7.83754 30.0667 8.2C30.0667 8.56246 30.2107 8.91008 30.467 9.16638C30.7233 9.42268 31.0709 9.56667 31.4333 9.56667ZM21.8667 5.46667C21.8667 5.1042 21.7227 4.75659 21.4664 4.50029C21.2101 4.24399 20.8625 4.1 20.5 4.1C20.1375 4.1 19.7899 4.24399 19.5336 4.50029C19.2773 4.75659 19.1333 5.1042 19.1333 5.46667C19.1333 5.82913 19.2773 6.17675 19.5336 6.43305C19.7899 6.68935 20.1375 6.83333 20.5 6.83333C20.8625 6.83333 21.2101 6.68935 21.4664 6.43305C21.7227 6.17675 21.8667 5.82913 21.8667 5.46667ZM0 23.2333C0 20.9698 1.83646 19.1333 4.1 19.1333H36.9C39.1635 19.1333 41 20.9698 41 23.2333C41 25.4969 39.1635 27.3333 36.9 27.3333H4.1C1.83646 27.3333 0 25.4969 0 23.2333ZM1.36667 31.4333C1.36667 30.6817 1.98167 30.0667 2.73333 30.0667H38.2667C39.0183 30.0667 39.6333 30.6817 39.6333 31.4333V32.8C39.6333 35.8152 37.1819 38.2667 34.1667 38.2667H6.83333C3.81813 38.2667 1.36667 35.8152 1.36667 32.8V31.4333Z" fill="white"/>
</svg>
